<svg width="24" height="24" viewBox="0 0 24 24" fill="none" xmlns="http://www.w3.org/2000/svg">
<path d="M4.825 12.0249L8.7 15.8999C8.88333 16.0832 8.975 16.3166 8.975 16.5999C8.975 16.8832 8.88333 17.1166 8.7 17.2999C8.51667 17.4832 8.28333 17.5749 8 17.5749C7.71667 17.5749 7.48333 17.4832 7.3 17.2999L2.7 12.6999C2.6 12.5999 2.529 12.4916 2.487 12.3749C2.445 12.2582 2.42467 12.1332 2.426 11.9999C2.42733 11.8666 2.44833 11.7416 2.489 11.6249C2.52967 11.5082 2.60033 11.3999 2.701 11.2999L7.301 6.6999C7.501 6.4999 7.73867 6.3999 8.014 6.3999C8.28933 6.3999 8.52667 6.4999 8.726 6.6999C8.92533 6.8999 9.02533 7.13757 9.026 7.4129C9.02667 7.68824 8.92667 7.92557 8.726 8.1249L4.825 12.0249ZM19.175 11.9749L15.3 8.0999C15.1167 7.91657 15.025 7.68324 15.025 7.3999C15.025 7.11657 15.1167 6.88324 15.3 6.6999C15.4833 6.51657 15.7167 6.4249 16 6.4249C16.2833 6.4249 16.5167 6.51657 16.7 6.6999L21.3 11.2999C21.4 11.3999 21.471 11.5082 21.513 11.6249C21.555 11.7416 21.5757 11.8666 21.575 11.9999C21.5743 12.1332 21.5537 12.2582 21.513 12.3749C21.4723 12.4916 21.4013 12.5999 21.3 12.6999L16.7 17.2999C16.5 17.4999 16.2667 17.5959 16 17.5879C15.7333 17.5799 15.5 17.4756 15.3 17.2749C15.1 17.0742 15 16.8369 15 16.5629C15 16.2889 15.1 16.0512 15.3 15.8499L19.175 11.9749Z" fill="#FC971B"/>
<path d="M4.825 12.0249L8.7 15.8999C8.88333 16.0832 8.975 16.3166 8.975 16.5999C8.975 16.8832 8.88333 17.1166 8.7 17.2999C8.51667 17.4832 8.28333 17.5749 8 17.5749C7.71667 17.5749 7.48333 17.4832 7.3 17.2999L2.7 12.6999C2.6 12.5999 2.529 12.4916 2.487 12.3749C2.445 12.2582 2.42467 12.1332 2.426 11.9999C2.42733 11.8666 2.44833 11.7416 2.489 11.6249C2.52967 11.5082 2.60033 11.3999 2.701 11.2999L7.301 6.6999C7.501 6.4999 7.73867 6.3999 8.014 6.3999C8.28933 6.3999 8.52667 6.4999 8.726 6.6999C8.92533 6.8999 9.02533 7.13757 9.026 7.4129C9.02667 7.68824 8.92667 7.92557 8.726 8.1249L4.825 12.0249ZM19.175 11.9749L15.3 8.0999C15.1167 7.91657 15.025 7.68324 15.025 7.3999C15.025 7.11657 15.1167 6.88324 15.3 6.6999C15.4833 6.51657 15.7167 6.4249 16 6.4249C16.2833 6.4249 16.5167 6.51657 16.7 6.6999L21.3 11.2999C21.4 11.3999 21.471 11.5082 21.513 11.6249C21.555 11.7416 21.5757 11.8666 21.575 11.9999C21.5743 12.1332 21.5537 12.2582 21.513 12.3749C21.4723 12.4916 21.4013 12.5999 21.3 12.6999L16.7 17.2999C16.5 17.4999 16.2667 17.5959 16 17.5879C15.7333 17.5799 15.5 17.4756 15.3 17.2749C15.1 17.0742 15 16.8369 15 16.5629C15 16.2889 15.1 16.0512 15.3 15.8499L19.175 11.9749Z" fill="#FC971B"/>
<path d="M4.825 12.0249L8.7 15.8999C8.88333 16.0832 8.975 16.3166 8.975 16.5999C8.975 16.8832 8.88333 17.1166 8.7 17.2999C8.51667 17.4832 8.28333 17.5749 8 17.5749C7.71667 17.5749 7.48333 17.4832 7.3 17.2999L2.7 12.6999C2.6 12.5999 2.529 12.4916 2.487 12.3749C2.445 12.2582 2.42467 12.1332 2.426 11.9999C2.42733 11.8666 2.44833 11.7416 2.489 11.6249C2.52967 11.5082 2.60033 11.3999 2.701 11.2999L7.301 6.6999C7.501 6.4999 7.73867 6.3999 8.014 6.3999C8.28933 6.3999 8.52667 6.4999 8.726 6.6999C8.92533 6.8999 9.02533 7.13757 9.026 7.4129C9.02667 7.68824 8.92667 7.92557 8.726 8.1249L4.825 12.0249ZM19.175 11.9749L15.3 8.0999C15.1167 7.91657 15.025 7.68324 15.025 7.3999C15.025 7.11657 15.1167 6.88324 15.3 6.6999C15.4833 6.51657 15.7167 6.4249 16 6.4249C16.2833 6.4249 16.5167 6.51657 16.7 6.6999L21.3 11.2999C21.4 11.3999 21.471 11.5082 21.513 11.6249C21.555 11.7416 21.5757 11.8666 21.575 11.9999C21.5743 12.1332 21.5537 12.2582 21.513 12.3749C21.4723 12.4916 21.4013 12.5999 21.3 12.6999L16.7 17.2999C16.5 17.4999 16.2667 17.5959 16 17.5879C15.7333 17.5799 15.5 17.4756 15.3 17.2749C15.1 17.0742 15 16.8369 15 16.5629C15 16.2889 15.1 16.0512 15.3 15.8499L19.175 11.9749Z" fill="#FC971B"/>
<path d="M4.825 12.0249L8.7 15.8999C8.88333 16.0832 8.975 16.3166 8.975 16.5999C8.975 16.8832 8.88333 17.1166 8.7 17.2999C8.51667 17.4832 8.28333 17.5749 8 17.5749C7.71667 17.5749 7.48333 17.4832 7.3 17.2999L2.7 12.6999C2.6 12.5999 2.529 12.4916 2.487 12.3749C2.445 12.2582 2.42467 12.1332 2.426 11.9999C2.42733 11.8666 2.44833 11.7416 2.489 11.6249C2.52967 11.5082 2.60033 11.3999 2.701 11.2999L7.301 6.6999C7.501 6.4999 7.73867 6.3999 8.014 6.3999C8.28933 6.3999 8.52667 6.4999 8.726 6.6999C8.92533 6.8999 9.02533 7.13757 9.026 7.4129C9.02667 7.68824 8.92667 7.92557 8.726 8.1249L4.825 12.0249ZM19.175 11.9749L15.3 8.0999C15.1167 7.91657 15.025 7.68324 15.025 7.3999C15.025 7.11657 15.1167 6.88324 15.3 6.6999C15.4833 6.51657 15.7167 6.4249 16 6.4249C16.2833 6.4249 16.5167 6.51657 16.7 6.6999L21.3 11.2999C21.4 11.3999 21.471 11.5082 21.513 11.6249C21.555 11.7416 21.5757 11.8666 21.575 11.9999C21.5743 12.1332 21.5537 12.2582 21.513 12.3749C21.4723 12.4916 21.4013 12.5999 21.3 12.6999L16.7 17.2999C16.5 17.4999 16.2667 17.5959 16 17.5879C15.7333 17.5799 15.5 17.4756 15.3 17.2749C15.1 17.0742 15 16.8369 15 16.5629C15 16.2889 15.1 16.0512 15.3 15.8499L19.175 11.9749Z" fill="#FC971B"/>
</svg>
