<svg width="24" height="24" viewBox="0 0 24 24" fill="none" xmlns="http://www.w3.org/2000/svg">
<path d="M17 22C16.7167 22 16.4793 21.904 16.288 21.712C16.0967 21.52 16.0007 21.2827 16 21V19.75C15.35 19.5333 14.7667 19.2043 14.25 18.763C13.7333 18.3217 13.325 17.7923 13.025 17.175C12.8917 16.925 12.8917 16.675 13.025 16.425C13.1583 16.175 13.3583 15.9917 13.625 15.875C13.8583 15.775 14.0917 15.7833 14.325 15.9C14.5583 16.0167 14.7417 16.1917 14.875 16.425C15.1417 16.9083 15.5083 17.2917 15.975 17.575C16.4417 17.8583 16.95 18 17.5 18H20.5C20.9167 18 21.271 18.146 21.563 18.438C21.855 18.73 22.0007 19.084 22 19.5V21C22 21.2833 21.904 21.521 21.712 21.713C21.52 21.905 21.2827 22.0007 21 22H17ZM19 17C18.45 17 17.9793 16.8043 17.588 16.413C17.1967 16.0217 17.0007 15.5507 17 15C16.9993 14.4493 17.1953 13.9787 17.588 13.588C17.9807 13.1973 18.4513 13.0013 19 13C19.5487 12.9987 20.0197 13.1947 20.413 13.588C20.8063 13.9813 21.002 14.452 21 15C20.998 15.548 20.8023 16.019 20.413 16.413C20.0237 16.807 19.5527 17.0027 19 17ZM3 11C2.71667 11 2.47933 10.904 2.288 10.712C2.09667 10.52 2.00067 10.2827 2 10V8.50001C2 8.08334 2.146 7.72934 2.438 7.43801C2.73 7.14667 3.084 7.00067 3.5 7.00001H6.5C7.05 7.00001 7.55833 6.85834 8.025 6.57501C8.49167 6.29167 8.85833 5.90834 9.125 5.42501C9.25833 5.19167 9.44167 5.00434 9.675 4.86301C9.90833 4.72167 10.15 4.69234 10.4 4.77501C10.6833 4.85834 10.9 5.01667 11.05 5.25001C11.2 5.48334 11.225 5.72501 11.125 5.97501C10.8417 6.65834 10.425 7.23334 9.875 7.70001C9.325 8.16667 8.7 8.51667 8 8.75001V10C8 10.2833 7.904 10.521 7.712 10.713C7.52 10.905 7.28267 11.0007 7 11H3ZM5 6.00001C4.45 6.00001 3.97933 5.80434 3.588 5.41301C3.19667 5.02167 3.00067 4.55067 3 4.00001C2.99933 3.44934 3.19533 2.97867 3.588 2.58801C3.98067 2.19734 4.45133 2.00134 5 2.00001C5.54867 1.99867 6.01967 2.19467 6.413 2.58801C6.80633 2.98134 7.002 3.45201 7 4.00001C6.998 4.54801 6.80233 5.01901 6.413 5.41301C6.02367 5.80701 5.55267 6.00267 5 6.00001ZM10 14C9.71667 14 9.47933 13.904 9.288 13.712C9.09667 13.52 9.00067 13.2827 9 13C9 10.7667 9.775 8.87501 11.325 7.32501C12.875 5.77501 14.7667 5.00001 17 5.00001C17.2833 5.00001 17.521 5.09567 17.713 5.28701C17.905 5.47834 18.0007 5.71601 18 6.00001C17.9993 6.28401 17.9033 6.52167 17.712 6.71301C17.5207 6.90434 17.2833 7.00001 17 7.00001C15.3333 7.00001 13.9167 7.58334 12.75 8.75001C11.5833 9.91667 11 11.3333 11 13C11 13.2833 10.904 13.521 10.712 13.713C10.52 13.905 10.2827 14.0007 10 14ZM14 14C13.7167 14 13.4793 13.904 13.288 13.712C13.0967 13.52 13.0007 13.2827 13 13C13 11.9 13.3917 10.9583 14.175 10.175C14.9583 9.39167 15.9 9.00001 17 9.00001C17.2833 9.00001 17.521 9.09601 17.713 9.28801C17.905 9.48001 18.0007 9.71734 18 10C17.9993 10.2827 17.9033 10.5203 17.712 10.713C17.5207 10.9057 17.2833 11.0013 17 11C16.45 11 15.9793 11.196 15.588 11.588C15.1967 11.98 15.0007 12.4507 15 13C15 13.2833 14.904 13.521 14.712 13.713C14.52 13.905 14.2827 14.0007 14 14Z" fill="#FC971B"/>
<path d="M17 22C16.7167 22 16.4793 21.904 16.288 21.712C16.0967 21.52 16.0007 21.2827 16 21V19.75C15.35 19.5333 14.7667 19.2043 14.25 18.763C13.7333 18.3217 13.325 17.7923 13.025 17.175C12.8917 16.925 12.8917 16.675 13.025 16.425C13.1583 16.175 13.3583 15.9917 13.625 15.875C13.8583 15.775 14.0917 15.7833 14.325 15.9C14.5583 16.0167 14.7417 16.1917 14.875 16.425C15.1417 16.9083 15.5083 17.2917 15.975 17.575C16.4417 17.8583 16.95 18 17.5 18H20.5C20.9167 18 21.271 18.146 21.563 18.438C21.855 18.73 22.0007 19.084 22 19.5V21C22 21.2833 21.904 21.521 21.712 21.713C21.52 21.905 21.2827 22.0007 21 22H17ZM19 17C18.45 17 17.9793 16.8043 17.588 16.413C17.1967 16.0217 17.0007 15.5507 17 15C16.9993 14.4493 17.1953 13.9787 17.588 13.588C17.9807 13.1973 18.4513 13.0013 19 13C19.5487 12.9987 20.0197 13.1947 20.413 13.588C20.8063 13.9813 21.002 14.452 21 15C20.998 15.548 20.8023 16.019 20.413 16.413C20.0237 16.807 19.5527 17.0027 19 17ZM3 11C2.71667 11 2.47933 10.904 2.288 10.712C2.09667 10.52 2.00067 10.2827 2 10V8.50001C2 8.08334 2.146 7.72934 2.438 7.43801C2.73 7.14667 3.084 7.00067 3.5 7.00001H6.5C7.05 7.00001 7.55833 6.85834 8.025 6.57501C8.49167 6.29167 8.85833 5.90834 9.125 5.42501C9.25833 5.19167 9.44167 5.00434 9.675 4.86301C9.90833 4.72167 10.15 4.69234 10.4 4.77501C10.6833 4.85834 10.9 5.01667 11.05 5.25001C11.2 5.48334 11.225 5.72501 11.125 5.97501C10.8417 6.65834 10.425 7.23334 9.875 7.70001C9.325 8.16667 8.7 8.51667 8 8.75001V10C8 10.2833 7.904 10.521 7.712 10.713C7.52 10.905 7.28267 11.0007 7 11H3ZM5 6.00001C4.45 6.00001 3.97933 5.80434 3.588 5.41301C3.19667 5.02167 3.00067 4.55067 3 4.00001C2.99933 3.44934 3.19533 2.97867 3.588 2.58801C3.98067 2.19734 4.45133 2.00134 5 2.00001C5.54867 1.99867 6.01967 2.19467 6.413 2.58801C6.80633 2.98134 7.002 3.45201 7 4.00001C6.998 4.54801 6.80233 5.01901 6.413 5.41301C6.02367 5.80701 5.55267 6.00267 5 6.00001ZM10 14C9.71667 14 9.47933 13.904 9.288 13.712C9.09667 13.52 9.00067 13.2827 9 13C9 10.7667 9.775 8.87501 11.325 7.32501C12.875 5.77501 14.7667 5.00001 17 5.00001C17.2833 5.00001 17.521 5.09567 17.713 5.28701C17.905 5.47834 18.0007 5.71601 18 6.00001C17.9993 6.28401 17.9033 6.52167 17.712 6.71301C17.5207 6.90434 17.2833 7.00001 17 7.00001C15.3333 7.00001 13.9167 7.58334 12.75 8.75001C11.5833 9.91667 11 11.3333 11 13C11 13.2833 10.904 13.521 10.712 13.713C10.52 13.905 10.2827 14.0007 10 14ZM14 14C13.7167 14 13.4793 13.904 13.288 13.712C13.0967 13.52 13.0007 13.2827 13 13C13 11.9 13.3917 10.9583 14.175 10.175C14.9583 9.39167 15.9 9.00001 17 9.00001C17.2833 9.00001 17.521 9.09601 17.713 9.28801C17.905 9.48001 18.0007 9.71734 18 10C17.9993 10.2827 17.9033 10.5203 17.712 10.713C17.5207 10.9057 17.2833 11.0013 17 11C16.45 11 15.9793 11.196 15.588 11.588C15.1967 11.98 15.0007 12.4507 15 13C15 13.2833 14.904 13.521 14.712 13.713C14.52 13.905 14.2827 14.0007 14 14Z" fill="#FC971B"/>
</svg>
