<svg width="115" height="56" viewBox="0 0 115 56" fill="none" xmlns="http://www.w3.org/2000/svg">
<g clip-path="url(#clip0_45_46)">
<path d="M18.7048 24.7999H22.5151M22.5151 24.7999C24.6194 24.7999 26.3253 22.8299 26.3253 20.3999V19.5999C26.3253 16.728 24.3092 14.3999 21.8223 14.3999H18.0121C14.186 14.3999 11.0844 17.9816 11.0844 22.3999V38.1999C11.0844 40.5195 12.7127 42.3999 14.7214 42.3999H14.8946C16.9989 42.3999 18.7048 40.4299 18.7048 37.9999V33.9999C18.7048 32.7849 19.5578 31.7999 20.61 31.7999C21.6621 31.7999 22.5151 30.8149 22.5151 29.5999V24.7999Z" stroke="white" stroke-width="3"/>
<path d="M38.622 37.8V33.6C38.622 31.0595 36.8385 29 34.6386 29C32.4386 29 30.6552 31.0595 30.6552 33.6V37.8C30.6552 40.3404 32.4386 42.4 34.6386 42.4C36.8385 42.4 38.622 40.3404 38.622 37.8Z" stroke="white" stroke-width="3"/>
<path d="M65.4669 39.3999V17.3999C65.4669 15.7431 66.6301 14.3999 68.0648 14.3999C69.4995 14.3999 70.6627 15.7431 70.6627 17.3999V22.7999C70.6627 24.4567 71.8259 25.7999 73.2606 25.7999C74.6953 25.7999 75.8585 24.4567 75.8585 22.7999V17.3999C75.8585 15.7431 77.0216 14.3999 78.4564 14.3999C79.8911 14.3999 81.0543 15.7431 81.0543 17.3999V39.3999C81.0543 41.0567 79.8911 42.3999 78.4564 42.3999C77.0216 42.3999 75.8585 41.0567 75.8585 39.3999V33.9999C75.8585 32.3431 74.6953 30.9999 73.2606 30.9999C71.8259 30.9999 70.6627 32.3431 70.6627 33.9999V39.3999C70.6627 41.0567 69.4995 42.3999 68.0648 42.3999C66.6301 42.3999 65.4669 41.0567 65.4669 39.3999Z" stroke="white" stroke-width="3"/>
<path d="M44.1642 22.3999V34.3999C44.1642 38.8182 47.2657 42.3999 51.0919 42.3999H53.1702C56.9964 42.3999 60.0979 38.8182 60.0979 34.3999V29.9999C60.0979 27.7908 58.5472 25.9999 56.6341 25.9999H55.9413C54.411 25.9999 53.1702 27.4326 53.1702 29.1999V31.1999C53.1702 31.8627 53.6354 32.3999 54.2094 32.3999C54.7833 32.3999 55.2485 32.9371 55.2485 33.5999C55.2485 34.2627 54.7833 34.7999 54.2094 34.7999H52.564C51.0815 34.7999 49.8795 33.412 49.8795 31.6999V27.4999C49.8795 24.2414 52.1671 21.5999 54.9887 21.5999H56.9805C58.7023 21.5999 60.0979 19.9881 60.0979 17.9999C60.0979 16.0117 58.7023 14.3999 56.9805 14.3999H51.0919C47.2657 14.3999 44.1642 17.9816 44.1642 22.3999Z" stroke="white" stroke-width="3"/>
<path d="M38.4488 18.8999C38.4488 16.4146 36.7041 14.3999 34.552 14.3999C32.3998 14.3999 30.6552 16.4146 30.6552 18.8999V20.2999C30.6552 22.7852 32.3998 24.7999 34.552 24.7999C36.7041 24.7999 38.4488 22.7852 38.4488 20.2999V18.8999Z" stroke="white" stroke-width="3"/>
<path d="M98.9797 14.3999H91.3592C88.5375 14.3999 86.25 17.0414 86.25 20.2999V22.5999C86.25 24.5881 87.6456 26.1999 89.3675 26.1999C91.0894 26.1999 92.4849 27.8117 92.4849 29.7999V38.7999C92.4849 40.7883 93.8805 42.3999 95.6024 42.3999C97.3243 42.3999 98.7199 40.7883 98.7199 38.7999V29.2999C98.7199 27.5878 99.9218 26.1999 101.404 26.1999C102.887 26.1999 104.089 24.812 104.089 23.0999V20.2999C104.089 17.0414 101.801 14.3999 98.9797 14.3999Z" stroke="white" stroke-width="3"/>
<path d="M96.6949 0.800049H18.3051C16.127 0.800049 14.0439 1.82985 12.5404 3.64983L2.89496 15.3262C1.48139 17.0374 0.692749 19.3116 0.692749 21.6765V37.1403C0.692749 39.8438 1.72251 42.4104 3.50848 44.1584L12.6655 53.1208C14.1047 54.5296 15.93 55.3028 17.8166 55.3028H97.1833C99.07 55.3028 100.895 54.5296 102.334 53.1208L111.491 44.1584C113.277 42.4104 114.307 39.8438 114.307 37.1403V21.6765C114.307 19.3116 113.518 17.0374 112.105 15.3262L102.459 3.64983C100.956 1.82985 98.8729 0.800049 96.6949 0.800049Z" stroke="white" stroke-width="3"/>
</g>
<defs>
<clipPath id="clip0_45_46">
<rect width="115" height="56" fill="white"/>
</clipPath>
</defs>
</svg>
