<svg width="24" height="24" viewBox="0 0 24 24" fill="none" xmlns="http://www.w3.org/2000/svg">
<g clip-path="url(#clip0_171_247)">
<path d="M16 11.9998L12 7.99985M12 7.99985L8.99997 4.99985M12 7.99985V15.9998M2.70697 11.2928L11.293 2.70685C11.4805 2.51938 11.7348 2.41406 12 2.41406C12.2651 2.41406 12.5194 2.51938 12.707 2.70685L21.293 11.2928C21.4804 11.4804 21.5858 11.7347 21.5858 11.9998C21.5858 12.265 21.4804 12.5193 21.293 12.7068L12.707 21.2928C12.5194 21.4803 12.2651 21.5856 12 21.5856C11.7348 21.5856 11.4805 21.4803 11.293 21.2928L2.70697 12.7068C2.5195 12.5193 2.41418 12.265 2.41418 11.9998C2.41418 11.7347 2.5195 11.4804 2.70697 11.2928ZM13 15.9998C13 16.2651 12.8946 16.5194 12.7071 16.707C12.5195 16.8945 12.2652 16.9998 12 16.9998C11.7348 16.9998 11.4804 16.8945 11.2929 16.707C11.1053 16.5194 11 16.2651 11 15.9998C11 15.7346 11.1053 15.4803 11.2929 15.2927C11.4804 15.1052 11.7348 14.9998 12 14.9998C12.2652 14.9998 12.5195 15.1052 12.7071 15.2927C12.8946 15.4803 13 15.7346 13 15.9998ZM17 11.9998C17 12.2651 16.8946 12.5194 16.7071 12.707C16.5195 12.8945 16.2652 12.9998 16 12.9998C15.7348 12.9998 15.4804 12.8945 15.2929 12.707C15.1053 12.5194 15 12.2651 15 11.9998C15 11.7346 15.1053 11.4803 15.2929 11.2927C15.4804 11.1052 15.7348 10.9998 16 10.9998C16.2652 10.9998 16.5195 11.1052 16.7071 11.2927C16.8946 11.4803 17 11.7346 17 11.9998ZM13 7.99985C13 8.26507 12.8946 8.51942 12.7071 8.70696C12.5195 8.89449 12.2652 8.99985 12 8.99985C11.7348 8.99985 11.4804 8.89449 11.2929 8.70696C11.1053 8.51942 11 8.26507 11 7.99985C11 7.73463 11.1053 7.48028 11.2929 7.29274C11.4804 7.10521 11.7348 6.99985 12 6.99985C12.2652 6.99985 12.5195 7.10521 12.7071 7.29274C12.8946 7.48028 13 7.73463 13 7.99985Z" stroke="#FC971B" stroke-width="2"/>
</g>
<defs>
<clipPath id="clip0_171_247">
<rect width="24" height="24" fill="white"/>
</clipPath>
</defs>
</svg>
