<svg width="120" height="41" viewBox="0 0 120 41" fill="none" xmlns="http://www.w3.org/2000/svg">
<path d="M27.4155 30.6952C26.0826 30.6952 24.7392 30.5287 23.3851 30.1954C22.0522 29.8622 20.7193 29.4353 19.3864 28.9147C18.0747 28.394 16.7841 27.8422 15.5147 27.259C14.2665 26.6759 13.0499 26.1449 11.8651 25.6659C11.2727 26.2698 10.5957 26.8633 9.83404 27.4465C9.07239 28.0296 8.24727 28.5086 7.35867 28.8834C6.47008 29.2583 5.52857 29.4457 4.53422 29.4457C3.79373 29.4457 3.09555 29.3208 2.43968 29.0709C1.78381 28.8418 1.25489 28.4877 0.8529 28.0088C0.450915 27.5298 0.249924 26.9571 0.249924 26.2907C0.249924 25.5201 0.49323 24.8953 0.979842 24.4164C1.4453 23.9166 2.03769 23.5521 2.75703 23.323C3.49753 23.0731 4.25918 22.9482 5.04198 22.9482C6.09981 22.9482 7.22117 23.1148 8.40594 23.448C9.59072 23.7812 10.6697 24.1248 11.643 24.4789C12.2565 23.75 12.8277 23.0003 13.3567 22.2297C13.9068 21.4592 14.4145 20.6782 14.88 19.8869C13.3144 19.7203 12.0026 19.2621 10.9448 18.5124C9.90808 17.7627 9.38975 16.6693 9.38975 15.2324C9.38975 14.1911 9.69654 13.2019 10.3101 12.2648C10.9448 11.3068 11.8016 10.5675 12.8807 10.0469C13.1768 9.90106 13.5365 9.76572 13.9597 9.64076C14.3828 9.49497 14.7531 9.4221 15.0704 9.4221C15.4089 9.4221 15.5782 9.56789 15.5782 9.85943C15.5782 10.1093 15.4301 10.2655 15.1339 10.328C14.8377 10.4113 14.5415 10.4842 14.2453 10.5467C13.9702 10.5883 13.6846 10.682 13.3884 10.8278C12.4787 11.2443 11.7382 11.8691 11.1669 12.7021C10.6169 13.5143 10.3418 14.3681 10.3418 15.2636C10.3418 16.1383 10.5851 16.8359 11.0717 17.3566C11.5583 17.8772 12.1825 18.2625 12.9441 18.5124C13.727 18.7414 14.5626 18.8976 15.4512 18.981C16.2764 17.4607 17.1227 15.9405 17.9901 14.4202C18.8787 12.8999 19.8413 11.4317 20.878 10.0156C21.1742 9.59913 21.5445 9.14095 21.9888 8.64114C22.4331 8.12049 22.9303 7.62068 23.4803 7.14172C24.0516 6.66275 24.644 6.27744 25.2575 5.98591C25.8711 5.67352 26.4952 5.51733 27.1299 5.51733C28.1243 5.51733 28.8648 5.78808 29.3514 6.32952C29.838 6.85018 30.0813 7.50618 30.0813 8.29752C30.0813 9.17219 29.8697 10.0781 29.4466 11.0152C29.0235 11.9524 28.484 12.8479 27.8281 13.7017C27.1934 14.5347 26.5375 15.2636 25.8605 15.8884C24.6334 17.0338 23.1735 17.9917 21.481 18.7623C19.7884 19.5328 18.0113 19.9181 16.1494 19.9181C15.6205 20.7719 15.0704 21.6154 14.4992 22.4484C13.9279 23.2814 13.3038 24.0832 12.6268 24.8537C13.7481 25.3535 14.9012 25.8846 16.0859 26.4469C17.2707 27.0091 18.4873 27.5402 19.7355 28.04C20.9838 28.5607 22.2532 28.9771 23.5438 29.2895C24.8344 29.6227 26.1249 29.7893 27.4155 29.7893C28.0079 29.7893 28.6109 29.706 29.2245 29.5394C29.8592 29.3936 30.3987 29.1542 30.843 28.821C30.9487 28.7168 31.0757 28.6648 31.2238 28.6648C31.3719 28.6648 31.4989 28.7064 31.6046 28.7897C31.7104 28.8938 31.7633 28.998 31.7633 29.1021C31.7633 29.2062 31.7104 29.3104 31.6046 29.4145C31.3507 29.6435 31.0016 29.8518 30.5574 30.0392C30.1342 30.2475 29.6899 30.4037 29.2245 30.5078C28.759 30.6328 28.3464 30.6952 27.9868 30.6952H27.4155ZM16.7524 18.9497C18.3603 18.8456 19.873 18.4603 21.2906 17.7939C22.7292 17.1275 23.9987 16.2945 25.0988 15.2949C25.5008 14.92 25.924 14.441 26.3683 13.8579C26.8126 13.254 27.2251 12.6084 27.6059 11.9211C28.0079 11.2339 28.3253 10.5675 28.558 9.92191C28.8119 9.25551 28.9388 8.67238 28.9388 8.17257C28.9388 7.65192 28.7802 7.23543 28.4628 6.92305C28.1666 6.58983 27.7012 6.42324 27.0664 6.42324C26.5375 6.42324 26.0086 6.56903 25.4797 6.86057C24.9507 7.15211 24.4536 7.51657 23.9881 7.95391C23.5226 8.39124 23.0995 8.83897 22.7187 9.29714C22.3378 9.75532 22.0205 10.151 21.7666 10.4842C20.8568 11.7546 19.9789 13.1498 19.1326 14.6701C18.3074 16.1695 17.514 17.5961 16.7524 18.9497ZM4.62943 28.5398C5.49684 28.5398 6.3114 28.3732 7.07305 28.04C7.8347 27.7276 8.54345 27.3215 9.19933 26.8217C9.87634 26.3219 10.4793 25.8117 11.0083 25.291C10.1197 24.937 9.14642 24.6038 8.08859 24.2914C7.03075 23.979 6.0046 23.8229 5.01024 23.8229C4.43902 23.8229 3.86778 23.9166 3.29654 24.104C2.7253 24.2706 2.24926 24.5309 1.86844 24.885C1.50877 25.239 1.32893 25.7075 1.32893 26.2907C1.32893 26.8113 1.48761 27.2382 1.80497 27.5714C2.14348 27.8838 2.56662 28.1233 3.07439 28.2899C3.58216 28.4565 4.1005 28.5398 4.62943 28.5398ZM25.4549 27.9463C24.7567 27.9463 24.2701 27.7693 23.995 27.4152C23.7412 27.0404 23.6142 26.5927 23.6142 26.072C23.6142 25.5722 23.6989 25.0515 23.8681 24.5101C24.0373 23.9687 24.2172 23.4688 24.4076 23.0107C24.6192 22.5317 24.7884 22.1776 24.9154 21.9486C25.2962 21.303 25.7193 20.6782 26.1848 20.0743C26.6714 19.4704 27.1898 18.9393 27.7398 18.4811C28.2899 18.0022 28.8506 17.6377 29.4218 17.3878C30.0142 17.1171 30.6066 16.9817 31.199 16.9817C32.2145 16.9817 32.9339 17.2525 33.357 17.7939C33.7801 18.3146 33.9917 18.8768 33.9917 19.4808C33.9917 19.689 33.96 19.9077 33.8965 20.1368C33.8119 20.4491 33.7061 20.7199 33.5792 20.949C33.4734 21.178 33.3358 21.2926 33.1666 21.2926C33.0185 21.2926 32.881 21.2197 32.754 21.0739C32.6271 20.9281 32.5848 20.7824 32.6271 20.6366C32.6694 20.4908 32.7223 20.345 32.7858 20.1992C32.8704 20.0534 32.9233 19.9077 32.9445 19.7619C32.9656 19.6578 32.9762 19.5641 32.9762 19.4808C32.9974 19.3974 33.0079 19.3142 33.0079 19.2309C33.0079 18.6686 32.8175 18.2833 32.4367 18.075C32.077 17.846 31.6856 17.7314 31.2625 17.7314C30.7759 17.7314 30.2681 17.8668 29.7392 18.1375C29.2314 18.4083 28.7871 18.7207 28.4063 19.0747C27.9408 19.5328 27.4754 20.0639 27.0099 20.6678C26.5444 21.2717 26.1425 21.8861 25.804 22.5109C25.7617 22.615 25.6453 22.8649 25.4549 23.2606C25.2856 23.6563 25.1163 24.104 24.9471 24.6038C24.799 25.0828 24.725 25.5306 24.725 25.947C24.725 26.2386 24.7884 26.4885 24.9154 26.6968C25.0635 26.905 25.3068 27.0091 25.6453 27.0091C26.0049 27.0091 26.4175 26.8426 26.883 26.5093C27.3696 26.1761 27.8562 25.77 28.3428 25.291C28.8506 24.7912 29.3054 24.3123 29.7074 23.8541C30.1094 23.3959 30.4056 23.0419 30.596 22.792C30.723 22.6254 30.8393 22.4484 30.9451 22.261C31.0721 22.0527 31.199 21.8653 31.3259 21.6987C31.3894 21.6154 31.5164 21.5737 31.7068 21.5737C31.876 21.5737 32.0453 21.6258 32.2145 21.7299C32.405 21.8132 32.479 21.9382 32.4367 22.1048C32.352 22.2506 32.1934 22.5733 31.9607 23.0731C31.7491 23.5521 31.5481 24.0832 31.3577 24.6663C31.1673 25.2286 31.0721 25.7284 31.0721 26.1657C31.0721 26.7072 31.2413 27.0195 31.5798 27.1029C31.8125 27.1445 32.0559 27.0612 32.3097 26.853C32.5848 26.6447 32.8281 26.4052 33.0397 26.1345C33.2724 25.8637 33.4417 25.6659 33.5474 25.541C33.9917 24.9578 34.4043 24.3643 34.7851 23.7604C35.1871 23.1356 35.5891 22.5525 35.9911 22.011C36.118 21.8445 36.2661 21.7611 36.4354 21.7611C36.7315 21.7611 36.8797 21.9173 36.8797 22.2297C36.8797 22.3338 36.7422 22.6046 36.4671 23.0419C36.192 23.4584 35.8536 23.9374 35.4516 24.4789C35.0707 25.0203 34.7111 25.5097 34.3726 25.947C34.034 26.3844 33.6532 26.8113 33.2301 27.2278C32.807 27.6443 32.2674 27.8526 31.6116 27.8526C30.998 27.8526 30.5749 27.7172 30.3421 27.4465C30.1306 27.1757 30.0248 26.8738 30.0248 26.5406C30.0248 26.249 30.0565 25.947 30.12 25.6347C30.1835 25.3014 30.2469 25.0203 30.3104 24.7912L30.1835 24.6975C29.9931 24.9266 29.7074 25.2182 29.3266 25.5722C28.9458 25.9262 28.5227 26.2907 28.0572 26.6655C27.5917 27.0195 27.1263 27.3215 26.6608 27.5714C26.2165 27.8213 25.8145 27.9463 25.4549 27.9463ZM39.5655 28.2587C39.1635 28.2587 38.8144 28.1337 38.5183 27.8838C38.2432 27.6339 38.1057 27.2382 38.1057 26.6968C38.1057 26.2594 38.1903 25.8117 38.3596 25.3535C38.5288 24.8746 38.6875 24.4997 38.8356 24.229C39.1741 23.5626 39.5338 22.9482 39.9146 22.3859C40.2955 21.8028 40.5811 21.3863 40.7715 21.1364C40.3907 21.1572 39.9358 21.0635 39.4069 20.8552C38.8991 20.647 38.5394 20.3763 38.3279 20.043C38.0528 20.4387 37.6614 21.0843 37.1536 21.9798C36.6459 22.8545 36.0006 23.7812 35.2178 24.76C35.0908 24.9266 34.9427 25.0099 34.7735 25.0099C34.4561 25.0099 34.2974 24.8746 34.2974 24.6038C34.2974 24.4997 34.3292 24.406 34.3926 24.3227C34.71 23.8853 35.1014 23.323 35.5669 22.6358C36.0535 21.9277 36.5189 21.1989 36.9632 20.4491C37.4287 19.6786 37.7989 18.9914 38.074 18.3874C38.1586 18.2 38.2432 18.0022 38.3279 17.7939C38.4336 17.5856 38.5288 17.3878 38.6135 17.2004C38.6981 17.0546 38.8144 16.9296 38.9626 16.8255C39.1107 16.7006 39.2799 16.6381 39.4703 16.6381C39.6396 16.6381 39.8089 16.711 39.9781 16.8568C40.1473 16.9817 40.232 17.1275 40.232 17.2941C40.232 17.4815 40.1579 17.721 40.0098 18.0126C39.8829 18.2833 39.7454 18.5645 39.5973 18.856C39.4492 19.1475 39.3751 19.4079 39.3751 19.637C39.3751 19.8244 39.5338 19.9493 39.8512 20.0118C40.1685 20.0743 40.4012 20.1055 40.5493 20.1055C41.1206 20.1055 41.5966 19.991 41.9774 19.7619C42.3583 19.5328 42.6227 19.4183 42.7708 19.4183C42.8978 19.4183 43.0035 19.4704 43.0882 19.5745C43.1939 19.6578 43.2469 19.7515 43.2469 19.8556C43.2469 20.0014 43.1834 20.1264 43.0564 20.2305C42.7603 20.5012 42.4112 20.8865 42.0092 21.3863C41.6072 21.8861 41.2052 22.4275 40.8032 23.0107C40.4012 23.5938 40.0521 24.1665 39.7559 24.7288C39.6713 24.937 39.5444 25.2286 39.3751 25.6034C39.227 25.9783 39.153 26.3323 39.153 26.6655C39.153 27.2278 39.3539 27.509 39.7559 27.509C39.9252 27.509 40.1156 27.4465 40.3272 27.3215C40.5599 27.1966 40.782 27.0508 40.9936 26.8842C41.5014 26.426 41.9457 25.9783 42.3265 25.541C42.7285 25.0828 43.1305 24.5726 43.5325 24.0103C43.9345 23.448 44.3999 22.7712 44.9288 21.9798C45.0135 21.834 45.1616 21.7611 45.3731 21.7611C45.6482 21.7611 45.7857 21.8861 45.7857 22.136C45.7857 22.261 45.7222 22.438 45.5953 22.667C45.2991 23.1877 44.9077 23.7604 44.4211 24.3851C43.9556 25.0099 43.469 25.6034 42.9612 26.1657C42.4746 26.7072 42.0409 27.1237 41.6601 27.4152C40.9831 27.9775 40.2849 28.2587 39.5655 28.2587ZM41.2555 39.4731C40.6419 39.4731 40.1341 39.3274 39.7321 39.0358C39.309 38.7651 39.0445 38.3382 38.9388 37.755C38.8541 37.1511 39.0869 36.5159 39.6369 35.8495C40.187 35.1831 40.8746 34.5271 41.6997 33.8815C42.3556 33.3609 43.0432 32.8715 43.7626 32.4133C44.4819 31.976 45.1484 31.5699 45.7619 31.195C46.3966 30.841 46.9044 30.5599 47.2852 30.3516C48.0892 29.8727 48.9143 29.3728 49.7608 28.8522C50.6068 28.3524 51.4215 27.863 52.2045 27.384C52.4583 26.6343 52.617 25.8846 52.6805 25.1349C52.7648 24.3643 52.7965 23.6146 52.7757 22.8857C52.5426 23.2397 52.2045 23.7083 51.7602 24.2914C51.3367 24.8746 50.8289 25.4576 50.2369 26.0408C49.6656 26.6239 49.0412 27.1237 48.3642 27.5402C47.6872 27.9359 46.989 28.1337 46.2697 28.1337C45.3599 28.1337 44.7358 27.8734 44.3973 27.3528C44.0587 26.8321 43.8895 26.2178 43.8895 25.5097C43.8895 24.885 43.9741 24.2498 44.1434 23.6042C44.3338 22.9586 44.5348 22.438 44.7464 22.0423C45.1695 21.1885 45.6984 20.3554 46.3331 19.5432C46.989 18.731 47.7189 18.0647 48.5229 17.544C49.348 17.0233 50.1838 16.763 51.0302 16.763C51.6436 16.763 52.0879 16.9401 52.3631 17.2941C52.6592 17.6481 52.8074 18.0542 52.8074 18.5124C52.8074 18.6582 52.7648 18.8872 52.6805 19.1996C52.5957 19.512 52.4792 19.8348 52.3314 20.168C52.2045 20.5012 52.0458 20.7928 51.8554 21.0427C51.665 21.2717 51.4532 21.3863 51.2207 21.3863C51.0724 21.3863 50.9455 21.3447 50.8398 21.2613C50.7337 21.1572 50.6812 21.0531 50.6812 20.949C50.6812 20.8865 50.7655 20.7407 50.935 20.5116C51.1041 20.2826 51.2732 20.0014 51.4428 19.6682C51.6119 19.335 51.6967 18.981 51.6967 18.6061C51.6967 18.377 51.6332 18.1688 51.5063 17.9813C51.4002 17.7939 51.1889 17.7002 50.8716 17.7002C50.2155 17.7002 49.5596 17.9293 48.9037 18.3874C48.269 18.8456 47.6872 19.4183 47.1583 20.1055C46.6293 20.7928 46.185 21.5008 45.8254 22.2297C45.6772 22.5421 45.508 23.0107 45.3176 23.6354C45.1272 24.2602 45.032 24.8641 45.032 25.4472C45.032 25.9471 45.1377 26.374 45.3493 26.728C45.5609 27.0612 45.9311 27.2278 46.4601 27.2278C46.9256 27.2278 47.4227 27.0508 47.9516 26.6968C48.5017 26.3427 49.0518 25.895 49.6021 25.3535C50.1521 24.7912 50.6494 24.2186 51.0937 23.6354C51.5588 23.0315 51.9293 22.49 52.2045 22.011C52.5005 21.5321 52.6592 21.1885 52.6805 20.9802C52.7013 20.8761 52.7648 20.7615 52.8709 20.6366C52.9765 20.5116 53.1035 20.4491 53.2517 20.4491C53.4208 20.4491 53.5374 20.5012 53.6008 20.6053C53.6643 20.7094 53.7064 20.8136 53.7278 20.9177C53.8755 21.48 53.9499 22.136 53.9499 22.8857C53.9499 23.4896 53.9073 24.104 53.823 24.7288C53.7595 25.3535 53.6851 25.9158 53.6008 26.4156C54.3198 25.8325 54.9759 25.1349 55.5684 24.3227C56.1818 23.4896 56.7317 22.7087 57.2187 21.9798C57.3243 21.8132 57.4512 21.7299 57.5995 21.7299C57.7051 21.7299 57.8003 21.7715 57.8851 21.8549C57.9907 21.9382 58.0438 22.0423 58.0438 22.1672C58.0438 22.2506 58.0121 22.3547 57.9486 22.4796C57.2926 23.5209 56.5944 24.5205 55.854 25.4785C55.1345 26.4156 54.2142 27.2487 53.0931 27.9775C52.5005 29.6435 51.6858 31.2159 50.6494 32.6945C49.6339 34.1939 48.5017 35.4851 47.2535 36.568C46.0263 37.6717 44.7887 38.4735 43.5404 38.9733C43.1384 39.1399 42.747 39.2649 42.3662 39.3482C41.9642 39.4315 41.594 39.4731 41.2555 39.4731ZM41.2555 38.6922C41.5093 38.6922 41.7844 38.6506 42.0806 38.5672C42.3768 38.4839 42.6835 38.3798 43.0009 38.2549C44.2703 37.6926 45.4234 36.9533 46.4601 36.037C47.5179 35.1414 48.4382 34.1418 49.2211 33.0381C50.0251 31.9344 50.6702 30.8306 51.1572 29.7269C51.1993 29.6019 51.2524 29.477 51.3159 29.352C51.3793 29.227 51.4428 29.1021 51.5063 28.9771C50.8924 29.3104 50.3003 29.6644 49.7291 30.0392C49.1576 30.4349 48.5652 30.7994 47.9516 31.1326C47.6131 31.32 47.116 31.6011 46.4601 31.976C45.8042 32.3509 45.0955 32.7673 44.3338 33.2255C43.5721 33.7045 42.8634 34.2043 42.2075 34.725C41.5728 35.2039 41.0439 35.6829 40.6207 36.1619C40.1976 36.6409 39.986 37.0886 39.986 37.5051C39.986 37.9216 40.113 38.2236 40.3669 38.411C40.5996 38.5985 40.8958 38.6922 41.2555 38.6922ZM59.3683 28.1337C58.2679 28.1337 57.4959 27.8213 57.0516 27.1966C56.6286 26.551 56.4169 25.8013 56.4169 24.9474C56.4169 24.3227 56.5755 23.5833 56.8929 22.7295C57.2102 21.8549 57.6441 21.001 58.194 20.168C58.7653 19.335 59.4213 18.6477 60.1616 18.1063C60.902 17.544 61.6954 17.2629 62.5418 17.2629C63.0917 17.2629 63.5256 17.419 63.843 17.7314C64.1817 18.023 64.3507 18.3978 64.3507 18.856C64.3507 19.7307 64.0651 20.5741 63.4939 21.3863C62.9226 22.1985 62.1823 22.8649 61.2724 23.3855C60.3625 23.9062 59.3896 24.1665 58.3527 24.1665C58.2258 24.1665 58.0988 24.1665 57.9719 24.1665C57.845 24.1456 57.718 24.1248 57.5911 24.104C57.5276 24.3747 57.4959 24.6871 57.4959 25.0411C57.4959 25.5826 57.6228 26.0824 57.8767 26.5406C58.1519 26.9987 58.6701 27.2278 59.4317 27.2278C60.0664 27.2278 60.6798 27.0716 61.2724 26.7592C61.865 26.4469 62.3618 26.0928 62.764 25.6971C63.1661 25.3014 63.5043 24.9474 63.7795 24.635C64.0547 24.3227 64.3403 23.9687 64.6364 23.573C64.9324 23.1565 65.3028 22.615 65.7471 21.9486C65.8319 21.8028 65.9588 21.7299 66.1279 21.7299C66.424 21.7299 66.5722 21.8861 66.5722 22.1985C66.5722 22.3026 66.5509 22.3859 66.5088 22.4484C65.9375 23.4064 65.3028 24.3227 64.6046 25.1973C63.9064 26.0512 63.1235 26.7592 62.2562 27.3215C61.4098 27.863 60.4473 28.1337 59.3683 28.1337ZM58.5749 23.1981C59.3787 23.1981 60.1299 22.9898 60.8281 22.5733C61.5476 22.136 62.1293 21.5946 62.5736 20.949C63.0392 20.3033 63.2717 19.6473 63.2717 18.981C63.2717 18.7519 63.2083 18.5645 63.0813 18.4187C62.9757 18.2729 62.7853 18.2 62.5101 18.2C61.9602 18.2 61.4311 18.3874 60.9233 18.7623C60.4155 19.1163 59.9499 19.5745 59.5269 20.1368C59.1248 20.6782 58.7757 21.2197 58.4797 21.7611C58.2045 22.3026 58.0036 22.7608 57.8767 23.1356C57.9823 23.1565 58.0884 23.1773 58.194 23.1981C58.321 23.1981 58.4479 23.1981 58.5749 23.1981ZM67.8912 28.1337C66.7909 28.1337 66.0188 27.8213 65.5745 27.1966C65.1511 26.551 64.9398 25.8013 64.9398 24.9474C64.9398 24.3227 65.0985 23.5833 65.4159 22.7295C65.7332 21.8549 66.1666 21.001 66.717 20.168C67.2883 19.335 67.9438 18.6477 68.6846 18.1063C69.425 17.544 70.2183 17.2629 71.0648 17.2629C71.6147 17.2629 72.0486 17.419 72.366 17.7314C72.7041 18.023 72.8737 18.3978 72.8737 18.856C72.8737 19.7307 72.5881 20.5741 72.0169 21.3863C71.4456 22.1985 70.7048 22.8649 69.7954 23.3855C68.8855 23.9062 67.9121 24.1665 66.8757 24.1665C66.7488 24.1665 66.6218 24.1665 66.4949 24.1665C66.3679 24.1456 66.241 24.1248 66.1141 24.104C66.0506 24.3747 66.0188 24.6871 66.0188 25.0411C66.0188 25.5826 66.1458 26.0824 66.3997 26.5406C66.6744 26.9987 67.1931 27.2278 67.9547 27.2278C68.5894 27.2278 69.2028 27.0716 69.7954 26.7592C70.3874 26.4469 70.8848 26.0928 71.2869 25.6971C71.6886 25.3014 72.0273 24.9474 72.3025 24.635C72.5772 24.3227 72.8628 23.9687 73.1593 23.573C73.4554 23.1565 73.8258 22.615 74.2701 21.9486C74.3544 21.8028 74.4813 21.7299 74.6509 21.7299C74.9469 21.7299 75.0952 21.8861 75.0952 22.1985C75.0952 22.3026 75.0739 22.3859 75.0317 22.4484C74.4605 23.4064 73.8258 24.3227 73.1276 25.1973C72.4294 26.0512 71.6464 26.7592 70.7792 27.3215C69.9327 27.863 68.9702 28.1337 67.8912 28.1337ZM67.0978 23.1981C67.9016 23.1981 68.6529 22.9898 69.3511 22.5733C70.0701 22.136 70.6522 21.5946 71.0965 20.949C71.5617 20.3033 71.7947 19.6473 71.7947 18.981C71.7947 18.7519 71.7312 18.5645 71.6043 18.4187C71.4982 18.2729 71.3078 18.2 71.0331 18.2C70.4826 18.2 69.954 18.3874 69.4463 18.7623C68.9385 19.1163 68.4729 19.5745 68.0499 20.1368C67.6478 20.6782 67.2987 21.2197 67.0026 21.7611C66.7274 22.3026 66.5266 22.7608 66.3997 23.1356C66.5053 23.1565 66.6109 23.1773 66.717 23.1981C66.844 23.1981 66.9709 23.1981 67.0978 23.1981ZM76.4137 28.1337C75.3134 28.1337 74.5413 27.8213 74.097 27.1966C73.674 26.551 73.4623 25.8013 73.4623 24.9474C73.4623 24.3227 73.621 23.5833 73.9383 22.7295C74.2557 21.8549 74.6896 21.001 75.2395 20.168C75.8107 19.335 76.4668 18.6477 77.2071 18.1063C77.9474 17.544 78.7408 17.2629 79.5873 17.2629C80.1372 17.2629 80.5711 17.419 80.8884 17.7314C81.2271 18.023 81.3962 18.3978 81.3962 18.856C81.3962 19.7307 81.1106 20.5741 80.5393 21.3863C79.9681 22.1985 79.2278 22.8649 78.3178 23.3855C77.4079 23.9062 76.435 24.1665 75.3982 24.1665C75.2712 24.1665 75.1443 24.1665 75.0174 24.1665C74.8904 24.1456 74.7635 24.1248 74.6365 24.104C74.5731 24.3747 74.5413 24.6871 74.5413 25.0411C74.5413 25.5826 74.6683 26.0824 74.9221 26.5406C75.1974 26.9987 75.7155 27.2278 76.4772 27.2278C77.1119 27.2278 77.7253 27.0716 78.3178 26.7592C78.9104 26.4469 79.4073 26.0928 79.8094 25.6971C80.2116 25.3014 80.5498 24.9474 80.825 24.635C81.1002 24.3227 81.3858 23.9687 81.6818 23.573C81.9779 23.1565 82.3483 22.615 82.7926 21.9486C82.8774 21.8028 83.0043 21.7299 83.1734 21.7299C83.4694 21.7299 83.6177 21.8861 83.6177 22.1985C83.6177 22.3026 83.5964 22.3859 83.5542 22.4484C82.983 23.4064 82.3483 24.3227 81.6501 25.1973C80.9519 26.0512 80.1689 26.7592 79.3017 27.3215C78.4552 27.863 77.4927 28.1337 76.4137 28.1337ZM75.6203 23.1981C76.4241 23.1981 77.1754 22.9898 77.8736 22.5733C78.5931 22.136 79.1747 21.5946 79.619 20.949C80.0846 20.3033 80.3172 19.6473 80.3172 18.981C80.3172 18.7519 80.2537 18.5645 80.1268 18.4187C80.0212 18.2729 79.8307 18.2 79.5555 18.2C79.0056 18.2 78.4765 18.3874 77.9688 18.7623C77.461 19.1163 76.9954 19.5745 76.5724 20.1368C76.1702 20.6782 75.8212 21.2197 75.5251 21.7611C75.2499 22.3026 75.0491 22.7608 74.9221 23.1356C75.0278 23.1565 75.1339 23.1773 75.2395 23.1981C75.3664 23.1981 75.4934 23.1981 75.6203 23.1981Z" fill="white"/>
<path d="M37.438 32.2144H2.72728C2.04263 32.2144 1.48761 32.5422 1.48761 32.9465C1.48761 33.3508 2.04263 33.6786 2.72728 33.6786H37.438C38.1227 33.6786 38.6777 33.3508 38.6777 32.9465C38.6777 32.5422 38.1227 32.2144 37.438 32.2144Z" fill="white"/>
<path d="M118.76 32.2144H54.2975C53.6127 32.2144 53.0578 32.5422 53.0578 32.9465C53.0578 33.3508 53.6127 33.6786 54.2975 33.6786H118.76C119.445 33.6786 120 33.3508 120 32.9465C120 32.5422 119.445 32.2144 118.76 32.2144Z" fill="white"/>
</svg>
